<svg xmlns="http://www.w3.org/2000/svg" viewBox="0 0 128 128" fill="none">
  <defs>
    <radialGradient id="head-fur" cx="50%" cy="40%" r="60%">
      <stop offset="0%" stop-color="#d97706"/>
      <stop offset="40%" stop-color="#c2410c"/>
      <stop offset="75%" stop-color="#9a3412"/>
      <stop offset="100%" stop-color="#78350f"/>
    </radialGradient>
    <radialGradient id="head-top" cx="50%" cy="15%" r="45%">
      <stop offset="0%" stop-color="#ea580c" stop-opacity="0.35"/>
      <stop offset="100%" stop-color="#9a3412" stop-opacity="0"/>
    </radialGradient>
    <radialGradient id="body-fur" cx="50%" cy="30%" r="60%">
      <stop offset="0%" stop-color="#9a3412"/>
      <stop offset="55%" stop-color="#78350f"/>
      <stop offset="100%" stop-color="#451a03"/>
    </radialGradient>
    <radialGradient id="belly" cx="50%" cy="40%" r="55%">
      <stop offset="0%" stop-color="#fef3c7"/>
      <stop offset="35%" stop-color="#fbd38d"/>
      <stop offset="75%" stop-color="#f6ad55"/>
      <stop offset="100%" stop-color="#c05621"/>
    </radialGradient>
    <radialGradient id="muzzle" cx="50%" cy="45%" r="55%">
      <stop offset="0%" stop-color="#fde68a"/>
      <stop offset="45%" stop-color="#f6ad55"/>
      <stop offset="100%" stop-color="#c2410c"/>
    </radialGradient>
    <radialGradient id="nose" cx="40%" cy="30%" r="55%">
      <stop offset="0%" stop-color="#57534e"/>
      <stop offset="100%" stop-color="#1c1917"/>
    </radialGradient>
    <radialGradient id="iris" cx="45%" cy="35%" r="55%">
      <stop offset="0%" stop-color="#a8a29e"/>
      <stop offset="35%" stop-color="#57534e"/>
      <stop offset="100%" stop-color="#1c1917"/>
    </radialGradient>
    <radialGradient id="ear-outer" cx="50%" cy="50%" r="50%">
      <stop offset="0%" stop-color="#78350f"/>
      <stop offset="100%" stop-color="#451a03"/>
    </radialGradient>
    <radialGradient id="ear-inner" cx="50%" cy="50%" r="50%">
      <stop offset="0%" stop-color="#fcd34d"/>
      <stop offset="50%" stop-color="#d97706"/>
      <stop offset="100%" stop-color="#78350f"/>
    </radialGradient>
    <radialGradient id="paw" cx="40%" cy="30%" r="50%">
      <stop offset="0%" stop-color="#9a3412"/>
      <stop offset="100%" stop-color="#451a03"/>
    </radialGradient>
    <radialGradient id="sparkle-bg" cx="50%" cy="50%" r="50%">
      <stop offset="0%" stop-color="#fef9c3" stop-opacity="0.4"/>
      <stop offset="100%" stop-color="#eab308" stop-opacity="0"/>
    </radialGradient>
    <filter id="shadow">
      <feDropShadow dx="0" dy="2.5" stdDeviation="3" flood-color="#451a03" flood-opacity="0.12"/>
    </filter>
  </defs>

  <g filter="url(#shadow)">
    <!-- ============= TAIL ============= -->
    <g>
      <path d="M44 96c-8 5-14 10-15 16c-1 6 3 9 9 8c6-1 18-6 26-12c8-6 14-14 14-18c0-4-4-4-8-2c-4 2-12 7-16 9c-4 2-10 1-10-1z" fill="url(#body-fur)"/>
      <path d="M48 98c-5 3-10 7-11 12c-1 5 2 7 6.5 6c4.5-1 14-5 20-10c6-5 10-11 10-14c0-3-2.5-2.5-5.5-1c-3 1.5-9 5-12.5 6.5c-3.5 1.5-7.5 0.5-7.5 0.5z" fill="#78350f" opacity="0.3"/>
      <g stroke="#78350f" stroke-width="0.6" opacity="0.18" fill="none" stroke-linecap="round">
        <path d="M50 102c0 0 2-1 4-0.5"/>
        <path d="M56 106c0 0 2-1 4-0.5"/>
        <path d="M62 110c0 0 2-1 3-0.5"/>
        <path d="M46 108c0 0 2-1 3-0.5"/>
        <path d="M54 114c0 0 2-1 3-0.5"/>
      </g>
    </g>

    <!-- ============= BODY ============= -->
    <g>
      <ellipse cx="56" cy="72" rx="24" ry="30" fill="url(#body-fur)"/>
      <ellipse cx="48" cy="62" rx="14" ry="16" fill="#78350f" opacity="0.4"/>
      <ellipse cx="46" cy="60" rx="8" ry="10" fill="#9a3412" opacity="0.25"/>
      <ellipse cx="56" cy="78" rx="16" ry="20" fill="url(#belly)"/>
      <ellipse cx="52" cy="72" rx="10" ry="12" fill="#fef3c7" opacity="0.25"/>
      <g stroke="#78350f" stroke-width="0.5" opacity="0.12" fill="none" stroke-linecap="round">
        <path d="M44 56c0 0 1-1 2-0.5"/>
        <path d="M40 62c0 0 1-1 2-0.5"/>
        <path d="M38 68c0 0 1-1 2-0.5"/>
        <path d="M42 74c0 0 1-1 2-0.5"/>
        <path d="M68 58c0 0 1-1 2-0.5"/>
        <path d="M70 64c0 0 1-1 2-0.5"/>
        <path d="M68 70c0 0 1-1 2-0.5"/>
      </g>
    </g>

    <!-- ============= HIND LEGS ============= -->
    <g>
      <ellipse cx="34" cy="92" rx="9" ry="10" fill="url(#body-fur)" transform="rotate(-10, 34, 92)"/>
      <ellipse cx="32" cy="90" rx="6" ry="6" fill="#78350f" transform="rotate(-10, 32, 90)"/>
      <ellipse cx="28" cy="100" rx="10" ry="4" fill="#451a03" transform="rotate(-6, 28, 100)"/>
      <ellipse cx="26" cy="98.5" rx="8" ry="3" fill="url(#paw)" transform="rotate(-6, 26, 98.5)"/>
      <circle cx="22" cy="99" r="2" fill="#451a03"/>
      <circle cx="27" cy="101" r="2" fill="#451a03"/>
      <circle cx="33" cy="99.5" r="2" fill="#451a03"/>

      <ellipse cx="76" cy="94" rx="9" ry="10" fill="url(#body-fur)" transform="rotate(10, 76, 94)"/>
      <ellipse cx="78" cy="92" rx="6" ry="6" fill="#78350f" transform="rotate(10, 78, 92)"/>
      <ellipse cx="82" cy="102" rx="10" ry="4" fill="#451a03" transform="rotate(6, 82, 102)"/>
      <ellipse cx="84" cy="100.5" rx="8" ry="3" fill="url(#paw)" transform="rotate(6, 84, 100.5)"/>
      <circle cx="78" cy="101" r="2" fill="#451a03"/>
      <circle cx="84" cy="103" r="2" fill="#451a03"/>
      <circle cx="90" cy="101" r="2" fill="#451a03"/>
    </g>

    <!-- ============= LEFT PAW + SPARKLE ============= -->
    <g>
      <ellipse cx="88" cy="68" rx="7" ry="6" fill="url(#paw)" transform="rotate(-25, 88, 68)"/>
      <ellipse cx="86" cy="66.5" rx="5" ry="3.5" fill="#78350f" transform="rotate(-25, 86, 66.5)"/>
      <circle cx="96" cy="60" r="9" fill="url(#sparkle-bg)"/>
      <path d="M96 52l1.6 3.4 3.8 0.6-2.8 2.4 0.6 3.6-3.2-1.6-3.2 1.6 0.6-3.6-2.8-2.4 3.8-0.6z" fill="#fef08a"/>
      <path d="M96 54l1 2.2 2.4 0.4-1.6 1.5 0.4 2.4-2.2-1.2-2.2 1.2 0.4-2.4-1.6-1.5 2.4-0.4z" fill="#fef9c3"/>
      <circle cx="96" cy="58" r="1.5" fill="#fff" opacity="0.95"/>
    </g>

    <!-- ============= RIGHT PAW ============= -->
    <g>
      <ellipse cx="40" cy="74" rx="7" ry="5.5" fill="url(#paw)" transform="rotate(15, 40, 74)"/>
      <ellipse cx="39" cy="73" rx="5" ry="3.5" fill="#78350f" transform="rotate(15, 39, 73)"/>
      <circle cx="37" cy="76" r="1" fill="#a16207" opacity="0.4"/>
      <circle cx="41" cy="77" r="1" fill="#a16207" opacity="0.4"/>
      <circle cx="44" cy="75.5" r="1" fill="#a16207" opacity="0.4"/>
    </g>

    <!-- ============= HEAD ============= -->
    <g>
      <ellipse cx="56" cy="38" rx="26" ry="24" fill="url(#head-fur)"/>
      <ellipse cx="50" cy="26" rx="14" ry="11" fill="url(#head-top)"/>

      <g stroke="#78350f" stroke-width="0.6" opacity="0.2" fill="none" stroke-linecap="round">
        <path d="M44 24c0 0 1-1.5 2-1"/>
        <path d="M50 22c0 0 1-1 2-0.5"/>
        <path d="M56 21.5c0 0 1-1 2-0.5"/>
        <path d="M62 22.5c0 0 1-1 2-0.5"/>
        <path d="M68 24.5c0 0 1-1.5 2-1"/>
      </g>

      <!-- EARS -->
      <ellipse cx="38" cy="16" rx="6" ry="5.5" fill="url(#ear-outer)"/>
      <ellipse cx="38" cy="16" rx="4" ry="3.5" fill="url(#ear-inner)"/>
      <ellipse cx="74" cy="16" rx="6" ry="5.5" fill="url(#ear-outer)"/>
      <ellipse cx="74" cy="16" rx="4" ry="3.5" fill="url(#ear-inner)"/>

      <!-- Eye sockets -->
      <ellipse cx="42" cy="34" rx="8" ry="9" fill="#451a03" opacity="0.2"/>
      <ellipse cx="70" cy="34" rx="8" ry="9" fill="#451a03" opacity="0.2"/>

      <!-- EYES -->
      <ellipse cx="42" cy="34" rx="7" ry="8" fill="#f5f5f4"/>
      <ellipse cx="70" cy="34" rx="7" ry="8" fill="#f5f5f4"/>
      <ellipse cx="43" cy="34" rx="4.8" ry="6.2" fill="url(#iris)"/>
      <ellipse cx="71" cy="34" rx="4.8" ry="6.2" fill="url(#iris)"/>
      <ellipse cx="44" cy="34" rx="3" ry="4.5" fill="#0a0a0a"/>
      <ellipse cx="72" cy="34" rx="3" ry="4.5" fill="#0a0a0a"/>
      <ellipse cx="40" cy="30" rx="2.5" ry="2" fill="#fff" opacity="0.95"/>
      <ellipse cx="68" cy="30" rx="2.5" ry="2" fill="#fff" opacity="0.95"/>
      <circle cx="46" cy="37" r="1" fill="#fff" opacity="0.4"/>
      <circle cx="74" cy="37" r="1" fill="#fff" opacity="0.4"/>
      <circle cx="42" cy="32" r="0.6" fill="#fff" opacity="0.5"/>
      <circle cx="70" cy="32" r="0.6" fill="#fff" opacity="0.5"/>

      <!-- EYEBROWS -->
      <path d="M33 26c0 0 3-2.5 9-2" stroke="#451a03" stroke-width="1.5" fill="none" stroke-linecap="round" opacity="0.4"/>
      <path d="M79 26c0 0-3-2.5-9-2" stroke="#451a03" stroke-width="1.5" fill="none" stroke-linecap="round" opacity="0.4"/>

      <!-- MUZZLE -->
      <ellipse cx="56" cy="46" rx="15" ry="10" fill="url(#muzzle)"/>
      <ellipse cx="53" cy="43" rx="7" ry="4" fill="#fde68a" opacity="0.25"/>

      <!-- NOSE -->
      <ellipse cx="56" cy="42" rx="4.5" ry="3.5" fill="url(#nose)"/>
      <ellipse cx="54.5" cy="41" rx="2" ry="1" fill="#78716c" opacity="0.5"/>
      <ellipse cx="54" cy="43" rx="0.8" ry="0.5" fill="#0a0a0a" opacity="0.6"/>
      <ellipse cx="58" cy="43" rx="0.8" ry="0.5" fill="#0a0a0a" opacity="0.6"/>

      <!-- MOUTH -->
      <line x1="56" y1="45.5" x2="56" y2="48" stroke="#451a03" stroke-width="0.8" opacity="0.35"/>
      <path d="M46 50c0 0 2.5 4.5 10 4.5s10-4.5 10-4.5" stroke="#292524" stroke-width="1.6" fill="none" stroke-linecap="round"/>
      <path d="M46 50c0 0 2-1 10-1s10 1 10 1" stroke="#451a03" stroke-width="1" fill="none" stroke-linecap="round" opacity="0.35"/>
      <ellipse cx="56" cy="52" rx="4" ry="3" fill="#e11d48" opacity="0.6"/>
      <ellipse cx="56" cy="51" rx="2.5" ry="1.2" fill="#fb7185" opacity="0.4"/>

      <!-- WHISKERS -->
      <g stroke="#a8a29e" stroke-width="0.8" fill="none" stroke-linecap="round" opacity="0.45">
        <path d="M38 44c0 0-5-1-10-3"/>
        <path d="M38 46c0 0-5.5-0.5-11 0"/>
        <path d="M38 48c0 0-5 1.5-9.5 3.5"/>
        <path d="M38 42c0 0-4.5-2-8.5-4.5"/>
        <path d="M74 44c0 0 5-1 10-3"/>
        <path d="M74 46c0 0 5.5-0.5 11 0"/>
        <path d="M74 48c0 0 5 1.5 9.5 3.5"/>
        <path d="M74 42c0 0 4.5-2 8.5-4.5"/>
      </g>

      <!-- BLUSH -->
      <ellipse cx="35" cy="43" rx="4" ry="2" fill="#f43f5e" opacity="0.1"/>
      <ellipse cx="77" cy="43" rx="4" ry="2" fill="#f43f5e" opacity="0.1"/>
    </g>
  </g>
</svg>
